<svg xmlns="http://www.w3.org/2000/svg" width="185.716" height="58.5" viewBox="0 0 185.716 58.5">
  <g id="Group_24" data-name="Group 24" transform="translate(0 4)">
    <g id="Group_18" data-name="Group 18" transform="translate(4.828 44.051)">
      <g id="Group_16" data-name="Group 16" transform="translate(0 0)">
        <g id="Group_10" data-name="Group 10" transform="translate(0 0)">
          <g id="NewAgeSys_Systems">
            <g id="Group_15" data-name="Group 15">
              <path id="Path_95" data-name="Path 95" d="M28.228,183.661v1.3a2.51,2.51,0,0,0-1.816-.759,1.827,1.827,0,0,0-1.088.3.92.92,0,0,0-.418.784.9.9,0,0,0,.332.7,6.643,6.643,0,0,0,1.358.761,9.172,9.172,0,0,1,1.673.932,1.517,1.517,0,0,1,.633,1.244,2.1,2.1,0,0,1-.7,1.545,3.327,3.327,0,0,1-2.393.837,5.762,5.762,0,0,1-2.011-.357l-.346-1.417a3.9,3.9,0,0,0,2.51.909,2.089,2.089,0,0,0,1.216-.337.982.982,0,0,0,.494-.837,1.018,1.018,0,0,0-.379-.812,7.6,7.6,0,0,0-1.467-.8,6.619,6.619,0,0,1-1.562-.909,1.788,1.788,0,0,1,.179-2.8,3.5,3.5,0,0,1,2.072-.558,5.946,5.946,0,0,1,1.715.282Z" transform="translate(-23.45 -183.375)" fill="#2d2d2d"/>
              <path id="Path_96" data-name="Path 96" d="M48.618,191.684a2.881,2.881,0,0,1,2.025.736,2.731,2.731,0,0,1,0,4.019,3.046,3.046,0,0,1-2.153.814,2.931,2.931,0,0,1-2.106-.784,2.638,2.638,0,0,1-.837-2.005,2.58,2.58,0,0,1,.873-1.986A3.107,3.107,0,0,1,48.618,191.684Zm-.117.767a1.673,1.673,0,0,0-1.272.524,1.9,1.9,0,0,0-.494,1.358,2.287,2.287,0,0,0,.524,1.542,1.779,1.779,0,0,0,2.6.078,1.952,1.952,0,0,0,.494-1.375,2.245,2.245,0,0,0-.519-1.534A1.7,1.7,0,0,0,48.5,192.451Z" transform="translate(-39.383 -189.365)" fill="#2d2d2d"/>
              <path id="Path_97" data-name="Path 97" d="M71.491,191.124H69.6a1.166,1.166,0,0,0,.368-.4,2.529,2.529,0,0,0,.064-.72v-5.269a2.485,2.485,0,0,0-.061-.72,1.157,1.157,0,0,0-.371-.407h.789a.9.9,0,0,0,.669-.215V190a2.393,2.393,0,0,0,.067.72A1.116,1.116,0,0,0,71.491,191.124Z" transform="translate(-56.728 -183.386)" fill="#2d2d2d"/>
              <path id="Path_98" data-name="Path 98" d="M80.562,196.028l1.361-3.051a1.766,1.766,0,0,0,.2-.669.742.742,0,0,0-.368-.575h1.623l-2.6,5.69a3.877,3.877,0,0,1-.876-.616,3.115,3.115,0,0,1-.466-.812l-1.342-3.068a3.566,3.566,0,0,0-.388-.753,2.457,2.457,0,0,0-.586-.427h.759a1.4,1.4,0,0,0,.837-.206,1.77,1.77,0,0,0,.142.53Z" transform="translate(-62.151 -189.263)" fill="#2d2d2d"/>
              <path id="Path_99" data-name="Path 99" d="M102.321,186.534v4.359a2.426,2.426,0,0,0,.064.72,1.116,1.116,0,0,0,.368.4H100.86a1.166,1.166,0,0,0,.368-.4,2.53,2.53,0,0,0,.064-.72v-3.021a2.51,2.51,0,0,0-.064-.717,1.143,1.143,0,0,0-.368-.407h.789A.9.9,0,0,0,102.321,186.534Zm-.519-1.9a.672.672,0,0,1,.491.209.7.7,0,0,1,.212.5.725.725,0,0,1-.714.714.678.678,0,0,1-.51-.212.706.706,0,0,1-.2-.513.667.667,0,0,1,.209-.5A.706.706,0,0,1,101.8,184.629Z" transform="translate(-79.269 -184.279)" fill="#2d2d2d"/>
              <path id="Path_100" data-name="Path 100" d="M111.809,191.46v.951a2.2,2.2,0,0,1,1.673-.887,1.988,1.988,0,0,1,1.729.778,3.066,3.066,0,0,1,.279,1.579v1.952a2.53,2.53,0,0,0,.064.72,1.166,1.166,0,0,0,.368.4h-1.9a1.177,1.177,0,0,0,.374-.41,2.29,2.29,0,0,0,.07-.714v-1.818a2.022,2.022,0,0,0-.226-1.116,1.344,1.344,0,0,0-1.169-.51,1.224,1.224,0,0,0-1.071.488,1.116,1.116,0,0,0-.162.661v2.3a2.53,2.53,0,0,0,.064.72,1.166,1.166,0,0,0,.368.4H110.4a1.115,1.115,0,0,0,.368-.4,2.427,2.427,0,0,0,.064-.72V192.8a2.416,2.416,0,0,0-.064-.717,1.09,1.09,0,0,0-.368-.407h.725A.909.909,0,0,0,111.809,191.46Z" transform="translate(-86.149 -189.205)" fill="#2d2d2d"/>
              <path id="Path_101" data-name="Path 101" d="M137.317,191.555l-.335.736c-.05.092-.162.139-.335.139a8.942,8.942,0,0,1-1.244-.162,1.673,1.673,0,0,1,.837,1.417A1.642,1.642,0,0,1,135,195.234a4.854,4.854,0,0,1-1.188.237c-.3.059-.455.156-.455.293s.162.215.485.215a7.727,7.727,0,0,1,1.916.19,2.033,2.033,0,0,1,1.015.655,1.286,1.286,0,0,1,.279.865,1.5,1.5,0,0,1-.583,1.213,3.921,3.921,0,0,1-2.544.778,4.719,4.719,0,0,1-2.231-.477c-.6-.318-.9-.706-.9-1.169a.837.837,0,0,1,.279-.664,1.16,1.16,0,0,1,.773-.245,1.6,1.6,0,0,1,.619.142c-.34.064-.51.24-.51.53a1.015,1.015,0,0,0,.524.893,2.658,2.658,0,0,0,1.422.329,2.828,2.828,0,0,0,1.473-.34,1.026,1.026,0,0,0,.558-.9q0-1.132-2.337-1.093h-.53a2.209,2.209,0,0,1-.259,0,.745.745,0,0,1-.614-.279.867.867,0,0,1-.209-.558.329.329,0,0,1,.167-.279,4.7,4.7,0,0,1,.742-.34,2,2,0,0,1-.823-.41,1.782,1.782,0,0,1,.047-2.753,2.585,2.585,0,0,1,1.7-.558c.137,0,.457.017.962.053.4.031.773.045,1.116.045A12.062,12.062,0,0,0,137.317,191.555Zm-3.592.658a1.213,1.213,0,0,0-.856.31,1.018,1.018,0,0,0-.335.784,1.4,1.4,0,0,0,.432,1.024,1.417,1.417,0,0,0,1.029.427,1.116,1.116,0,0,0,.837-.318,1.132,1.132,0,0,0,.321-.837,1.314,1.314,0,0,0-.418-.979A1.4,1.4,0,0,0,133.725,192.214Z" transform="translate(-100.849 -189.236)" fill="#2d2d2d"/>
              <path id="Path_102" data-name="Path 102" d="M169.361,183.89l-.368,1.353a.722.722,0,0,0-.455-.379,2.454,2.454,0,0,0-.616-.053,1.986,1.986,0,0,0-.265.017,4.949,4.949,0,0,1-.535.014h-.184v5.3a2.106,2.106,0,0,0,.12.837,1.294,1.294,0,0,0,.485.513h-2.259a.9.9,0,0,0,.463-.639,4.667,4.667,0,0,0,.045-.837v-5.174c-.245-.02-.558-.031-.92-.031a3.551,3.551,0,0,0-.778.064,2.039,2.039,0,0,0-.7.368l.421-1.353a1.885,1.885,0,0,0,.583.075h4.3a3.583,3.583,0,0,0,.435-.022Z" transform="translate(-124.359 -183.746)" fill="#2d2d2d"/>
              <path id="Path_103" data-name="Path 103" d="M186.208,191.684a2.87,2.87,0,0,1,2.022.736,2.731,2.731,0,0,1,0,4.019,3.04,3.04,0,0,1-2.153.814,2.923,2.923,0,0,1-2.1-.784,2.638,2.638,0,0,1-.837-2.005,2.577,2.577,0,0,1,.87-1.986A3.113,3.113,0,0,1,186.208,191.684Zm-.12.767a1.673,1.673,0,0,0-1.272.524,1.916,1.916,0,0,0-.491,1.358,2.273,2.273,0,0,0,.524,1.542,1.779,1.779,0,0,0,2.608.081,1.952,1.952,0,0,0,.491-1.375,2.245,2.245,0,0,0-.519-1.534,1.69,1.69,0,0,0-1.342-.6Z" transform="translate(-138.598 -189.365)" fill="#2d2d2d"/>
              <path id="Path_104" data-name="Path 104" d="M208.687,191.46v.962a1.991,1.991,0,0,1,1.673-.9,1.952,1.952,0,0,1,1.743,1,2.765,2.765,0,0,1,.817-.778,1.983,1.983,0,0,1,.979-.226,2.362,2.362,0,0,1,1.071.237,1.6,1.6,0,0,1,.778.747,3.035,3.035,0,0,1,.2,1.266v2.044a2.084,2.084,0,0,0,.086.756.731.731,0,0,0,.421.368h-1.991a1.1,1.1,0,0,0,.374-.4,2.34,2.34,0,0,0,.07-.725v-1.765a2.07,2.07,0,0,0-.279-1.244,1.216,1.216,0,0,0-1.018-.443,1.174,1.174,0,0,0-1.135.608,2.08,2.08,0,0,0-.131.9v1.952a2.393,2.393,0,0,0,.067.72,1.116,1.116,0,0,0,.377.4h-1.9a1.071,1.071,0,0,0,.368-.4,2.606,2.606,0,0,0,.064-.725v-1.86a1.673,1.673,0,0,0-.351-1.18,1.247,1.247,0,0,0-.948-.368,1.155,1.155,0,0,0-1.146.65,1.7,1.7,0,0,0-.117.734v2.025a2.511,2.511,0,0,0,.064.725,1.024,1.024,0,0,0,.368.4H207.29a1.166,1.166,0,0,0,.368-.4,2.53,2.53,0,0,0,.064-.72V192.8a2.511,2.511,0,0,0-.064-.717,1.144,1.144,0,0,0-.368-.407h.789A.778.778,0,0,0,208.687,191.46Z" transform="translate(-156.015 -189.205)" fill="#2d2d2d"/>
              <path id="Path_105" data-name="Path 105" d="M245.318,191.684a2.881,2.881,0,0,1,2.025.736,2.731,2.731,0,0,1,0,4.019,3.046,3.046,0,0,1-2.153.814,2.931,2.931,0,0,1-2.106-.784,2.638,2.638,0,0,1-.837-2.005,2.569,2.569,0,0,1,.873-1.986A3.107,3.107,0,0,1,245.318,191.684Zm-.117.767a1.674,1.674,0,0,0-1.272.524,1.905,1.905,0,0,0-.494,1.358,2.287,2.287,0,0,0,.524,1.542,1.779,1.779,0,0,0,2.608.081,1.952,1.952,0,0,0,.494-1.375,2.245,2.245,0,0,0-.519-1.534,1.7,1.7,0,0,0-1.342-.6Z" transform="translate(-181.221 -189.365)" fill="#2d2d2d"/>
              <path id="Path_106" data-name="Path 106" d="M268.264,196.943H266.37a1.116,1.116,0,0,0,.368-.4,2.393,2.393,0,0,0,.067-.72V192.8a2.385,2.385,0,0,0-.067-.717,1.091,1.091,0,0,0-.368-.407h.792a.9.9,0,0,0,.669-.215v.94a1.473,1.473,0,0,1,1.364-.876,2.507,2.507,0,0,1,.4.042v1.051a.753.753,0,0,0-.538-.17,1.116,1.116,0,0,0-.962.432,1.794,1.794,0,0,0-.259,1.071v1.883a2.53,2.53,0,0,0,.064.72A1.166,1.166,0,0,0,268.264,196.943Z" transform="translate(-198.617 -189.205)" fill="#2d2d2d"/>
              <path id="Path_107" data-name="Path 107" d="M281.88,196.943H280a1.166,1.166,0,0,0,.368-.4,2.531,2.531,0,0,0,.064-.72V192.8a2.512,2.512,0,0,0-.064-.717,1.144,1.144,0,0,0-.368-.407h.789a.909.909,0,0,0,.672-.215v.94a1.473,1.473,0,0,1,1.361-.876,2.542,2.542,0,0,1,.4.042v1.051a.759.759,0,0,0-.541-.184,1.116,1.116,0,0,0-.962.432,1.793,1.793,0,0,0-.259,1.071v1.883a2.427,2.427,0,0,0,.064.72A1.116,1.116,0,0,0,281.88,196.943Z" transform="translate(-208.445 -189.205)" fill="#2d2d2d"/>
              <path id="Path_108" data-name="Path 108" d="M295.635,191.684a2.881,2.881,0,0,1,2.025.736,2.728,2.728,0,0,1,0,4.019,3.032,3.032,0,0,1-2.15.814,2.931,2.931,0,0,1-2.106-.784,2.639,2.639,0,0,1-.837-2.005,2.569,2.569,0,0,1,.873-1.986A3.107,3.107,0,0,1,295.635,191.684Zm-.117.767a1.674,1.674,0,0,0-1.272.524,1.9,1.9,0,0,0-.494,1.358,2.287,2.287,0,0,0,.524,1.542,1.779,1.779,0,0,0,2.608.081,1.952,1.952,0,0,0,.494-1.375,2.245,2.245,0,0,0-.519-1.534A1.7,1.7,0,0,0,295.518,192.451Z" transform="translate(-217.506 -189.365)" fill="#2d2d2d"/>
              <path id="Path_109" data-name="Path 109" d="M318.943,193.3l-1.559,4.058a3.134,3.134,0,0,1-.795-.524,2.173,2.173,0,0,1-.407-.72l-1.222-3.194a6.143,6.143,0,0,0-.318-.745,1.654,1.654,0,0,0-.363-.39h.669a1.222,1.222,0,0,0,.7-.173,2.985,2.985,0,0,0,.206.759l1.289,3.417,1.1-2.867a2.009,2.009,0,0,0,.165-.669c0-.145-.109-.3-.326-.466h1.5a.5.5,0,0,0,0,.1v.053a1.9,1.9,0,0,0,.12.435l1.222,3.417,1.116-2.867a2.159,2.159,0,0,0,.173-.594c0-.173-.128-.354-.39-.541h1.537l-2.282,5.578a2.619,2.619,0,0,1-.714-.519,2.321,2.321,0,0,1-.391-.725Z" transform="translate(-233.164 -189.313)" fill="#2d2d2d"/>
              <path id="Path_110" data-name="Path 110" d="M353.722,187.2h-.778l-.184-3.018H353.9Z" transform="translate(-260.912 -183.955)" fill="#2d2d2d"/>
              <path id="Path_111" data-name="Path 111" d="M367.628,191.887v.973a2.708,2.708,0,0,0-1.395-.443,1.439,1.439,0,0,0-.767.178.53.53,0,0,0-.293.46.5.5,0,0,0,.265.416,4,4,0,0,0,.946.4,4.226,4.226,0,0,1,1.428.669,1.3,1.3,0,0,1,.443,1.007,1.492,1.492,0,0,1-.686,1.283,3.16,3.16,0,0,1-1.844.48,4.548,4.548,0,0,1-1.526-.279l-.391-1.116a4.134,4.134,0,0,0,2.131.7,1.579,1.579,0,0,0,.887-.232.678.678,0,0,0,.357-.58.588.588,0,0,0-.259-.508,5.479,5.479,0,0,0-1.091-.466,4.488,4.488,0,0,1-1.353-.681,1.1,1.1,0,0,1-.368-.865,1.3,1.3,0,0,1,.594-1.116,2.867,2.867,0,0,1,1.646-.41A4.769,4.769,0,0,1,367.628,191.887Z" transform="translate(-268.88 -189.417)" fill="#2d2d2d"/>
              <path id="Path_112" data-name="Path 112" d="M393.784,184.994v5.3a2.17,2.17,0,0,0,.125.837,1.169,1.169,0,0,0,.471.5H392.13a.9.9,0,0,0,.466-.639,4.958,4.958,0,0,0,.042-.837V185.58a4.974,4.974,0,0,0-.042-.837.909.909,0,0,0-.466-.639h2.725a3.406,3.406,0,0,1,1.434.259,2.2,2.2,0,0,1,.887.731,1.732,1.732,0,0,1,.329,1.012,1.933,1.933,0,0,1-.739,1.52,2.653,2.653,0,0,1-1.78.633,2.053,2.053,0,0,1-.837-.162,2.862,2.862,0,0,0,1.428-.519,1.579,1.579,0,0,0,.639-1.255,1.3,1.3,0,0,0-.443-1.04,1.816,1.816,0,0,0-1.213-.379A4.147,4.147,0,0,0,393.784,184.994Z" transform="translate(-289.301 -183.899)" fill="#2d2d2d"/>
              <path id="Path_113" data-name="Path 113" d="M415.624,196.943H413.73a1.116,1.116,0,0,0,.368-.4,2.426,2.426,0,0,0,.064-.72V192.8a2.415,2.415,0,0,0-.064-.717,1.091,1.091,0,0,0-.368-.407h.789a.9.9,0,0,0,.672-.215v.94a1.473,1.473,0,0,1,1.364-.876,2.511,2.511,0,0,1,.4.042v1.051a.753.753,0,0,0-.541-.184,1.116,1.116,0,0,0-.962.432,1.793,1.793,0,0,0-.259,1.071v1.883a2.53,2.53,0,0,0,.064.72A1.166,1.166,0,0,0,415.624,196.943Z" transform="translate(-304.876 -189.205)" fill="#2d2d2d"/>
              <path id="Path_114" data-name="Path 114" d="M429.411,191.684a2.87,2.87,0,0,1,2.022.736,2.731,2.731,0,0,1,0,4.019,3.046,3.046,0,0,1-2.153.814,2.934,2.934,0,0,1-2.106-.784,2.644,2.644,0,0,1-.837-2.005,2.577,2.577,0,0,1,.87-1.986,3.113,3.113,0,0,1,2.2-.795Zm-.12.767a1.673,1.673,0,0,0-1.272.524,1.9,1.9,0,0,0-.491,1.358,2.273,2.273,0,0,0,.524,1.542,1.779,1.779,0,0,0,2.608.081,1.952,1.952,0,0,0,.491-1.375,2.245,2.245,0,0,0-.519-1.534A1.7,1.7,0,0,0,429.291,192.451Z" transform="translate(-313.967 -189.364)" fill="#2d2d2d"/>
              <path id="Path_115" data-name="Path 115" d="M452.02,186.807l.628-.962a2.582,2.582,0,0,1,.778-.139,2.254,2.254,0,0,1,1.726.756,2.658,2.658,0,0,1,.7,1.871,2.747,2.747,0,0,1-1.026,2.251,3.537,3.537,0,0,1-2.3.692,9.082,9.082,0,0,1-2.131-.2.706.706,0,0,0,.293-.346,1.328,1.328,0,0,0,.053-.455v-5.539a2.426,2.426,0,0,0-.064-.72,1.141,1.141,0,0,0-.368-.407h.789a.926.926,0,0,0,.672-.215v6.945a4.31,4.31,0,0,0,.973.128,1.925,1.925,0,0,0,1.411-.513,1.86,1.86,0,0,0,.524-1.395,2.17,2.17,0,0,0-.471-1.456,1.528,1.528,0,0,0-1.227-.558A2.17,2.17,0,0,0,452.02,186.807Z" transform="translate(-331.254 -183.386)" fill="#2d2d2d"/>
              <path id="Path_116" data-name="Path 116" d="M474.664,191.124H472.77a1.166,1.166,0,0,0,.368-.4,2.528,2.528,0,0,0,.064-.72v-5.269a2.635,2.635,0,0,0-.059-.72,1.174,1.174,0,0,0-.374-.407h.789a.9.9,0,0,0,.672-.215V190a2.426,2.426,0,0,0,.064.72A1.137,1.137,0,0,0,474.664,191.124Z" transform="translate(-347.449 -183.386)" fill="#2d2d2d"/>
              <path id="Path_117" data-name="Path 117" d="M487.588,194.347h-4.2a2.164,2.164,0,0,0,.65,1.562,2.3,2.3,0,0,0,1.643.558,3.23,3.23,0,0,0,1.9-.594l-.616,1.091a4.3,4.3,0,0,1-1.579.279,3.442,3.442,0,0,1-2.332-.778,2.533,2.533,0,0,1-.9-2.011,2.756,2.756,0,0,1,.865-2.056,2.661,2.661,0,0,1,1.952-.725,2.591,2.591,0,0,1,1.871.708,2.393,2.393,0,0,1,.736,1.8Zm-4.153-.714h2.951a1.363,1.363,0,0,0-1.448-1.277A1.425,1.425,0,0,0,483.435,193.633Z" transform="translate(-354.218 -189.356)" fill="#2d2d2d"/>
              <path id="Path_118" data-name="Path 118" d="M505.668,191.46v.962a1.994,1.994,0,0,1,1.673-.9,1.952,1.952,0,0,1,1.74,1,2.764,2.764,0,0,1,.817-.778,1.984,1.984,0,0,1,.979-.226,2.362,2.362,0,0,1,1.071.237,1.6,1.6,0,0,1,.778.747,3.038,3.038,0,0,1,.2,1.266v2.044a2.083,2.083,0,0,0,.086.756.739.739,0,0,0,.421.368h-1.969a1.085,1.085,0,0,0,.371-.4,2.311,2.311,0,0,0,.073-.725v-1.765a2.067,2.067,0,0,0-.279-1.244,1.213,1.213,0,0,0-1.018-.443,1.174,1.174,0,0,0-1.135.608,2.08,2.08,0,0,0-.131.9v1.952a2.4,2.4,0,0,0,.067.72,1.116,1.116,0,0,0,.377.4h-1.9a1.071,1.071,0,0,0,.368-.4,2.6,2.6,0,0,0,.064-.725v-1.86a1.673,1.673,0,0,0-.351-1.18,1.247,1.247,0,0,0-.948-.368,1.155,1.155,0,0,0-1.146.65,1.7,1.7,0,0,0-.117.734v2.025a2.512,2.512,0,0,0,.064.725,1.023,1.023,0,0,0,.368.4H504.29a1.166,1.166,0,0,0,.368-.4,2.531,2.531,0,0,0,.064-.72V192.8a2.512,2.512,0,0,0-.064-.717,1.144,1.144,0,0,0-.368-.407h.756a.778.778,0,0,0,.622-.215Z" transform="translate(-370.178 -189.205)" fill="#2d2d2d"/>
              <path id="Path_119" data-name="Path 119" d="M543.164,191.887v.973a2.725,2.725,0,0,0-1.395-.443,1.453,1.453,0,0,0-.767.178.53.53,0,0,0-.293.46.5.5,0,0,0,.279.416,4.087,4.087,0,0,0,.948.4,4.254,4.254,0,0,1,1.428.669,1.3,1.3,0,0,1,.443,1.007,1.489,1.489,0,0,1-.689,1.283,3.154,3.154,0,0,1-1.844.48,4.55,4.55,0,0,1-1.526-.279l-.39-1.116a4.142,4.142,0,0,0,2.134.7,1.59,1.59,0,0,0,.887-.232.683.683,0,0,0,.357-.58.588.588,0,0,0-.259-.508,5.615,5.615,0,0,0-1.093-.466,4.524,4.524,0,0,1-1.353-.681,1.1,1.1,0,0,1-.368-.865,1.3,1.3,0,0,1,.594-1.116,2.873,2.873,0,0,1,1.646-.41,4.806,4.806,0,0,1,1.261.128Z" transform="translate(-395.467 -189.417)" fill="#2d2d2d"/>
              <path id="Path_120" data-name="Path 120" d="M571.251,183.89l-.365,1.353a.728.728,0,0,0-.455-.379,2.454,2.454,0,0,0-.616-.053l-.279.017c-.131,0-.31.014-.536.014h-.173v5.3a2.161,2.161,0,0,0,.12.837,1.324,1.324,0,0,0,.488.513h-2.262a.9.9,0,0,0,.466-.639,5.079,5.079,0,0,0,.042-.837v-5.174c-.245-.02-.558-.031-.918-.031a3.563,3.563,0,0,0-.781.064,2.039,2.039,0,0,0-.7.368l.421-1.353a1.916,1.916,0,0,0,.586.075h4.3a3.543,3.543,0,0,0,.432-.022Z" transform="translate(-414.157 -183.746)" fill="#2d2d2d"/>
              <path id="Path_121" data-name="Path 121" d="M588.065,191.684a2.881,2.881,0,0,1,2.025.736,2.728,2.728,0,0,1,0,4.019,3.032,3.032,0,0,1-2.15.814,2.931,2.931,0,0,1-2.106-.784,2.639,2.639,0,0,1-.837-2.005,2.569,2.569,0,0,1,.873-1.986A3.107,3.107,0,0,1,588.065,191.684Zm-.117.767a1.674,1.674,0,0,0-1.272.524,1.9,1.9,0,0,0-.494,1.358,2.287,2.287,0,0,0,.524,1.542,1.779,1.779,0,0,0,2.608.081,1.952,1.952,0,0,0,.494-1.375,2.245,2.245,0,0,0-.519-1.534,1.7,1.7,0,0,0-1.33-.6Z" transform="translate(-428.374 -189.365)" fill="#2d2d2d"/>
              <path id="Path_122" data-name="Path 122" d="M613.608,186.374v-1.643a2.59,2.59,0,0,0-.064-.725,1.073,1.073,0,0,0-.368-.4h.789a.9.9,0,0,0,.672-.215V190a2.43,2.43,0,0,0,.064.72,1.116,1.116,0,0,0,.368.4h-1.461v-2.6a7.266,7.266,0,0,0-.022-.736,1.515,1.515,0,0,0-.279-.681,1.562,1.562,0,0,0-1.33-.661,1.54,1.54,0,0,0-1.2.527,1.916,1.916,0,0,0-.471,1.336,2.231,2.231,0,0,0,.558,1.551,1.824,1.824,0,0,0,1.417.622,1.875,1.875,0,0,0,1.007-.312l-.661,1.026a2.23,2.23,0,0,1-.583.075,2.942,2.942,0,0,1-2.078-.734,2.63,2.63,0,0,1-.837-2.044,2.764,2.764,0,0,1,.773-1.986,2.527,2.527,0,0,1,1.9-.806A2.753,2.753,0,0,1,613.608,186.374Z" transform="translate(-445.77 -183.386)" fill="#2d2d2d"/>
              <path id="Path_123" data-name="Path 123" d="M636.031,195.726v-1.473a8.391,8.391,0,0,1-1.461.432q-.837.2-.837.876a.817.817,0,0,0,.323.683,1.442,1.442,0,0,0,.89.248,2.949,2.949,0,0,0,.854-.151l-.672.853a3,3,0,0,1-.628.064,1.953,1.953,0,0,1-1.35-.443,1.626,1.626,0,0,1-.586-1.263,1.219,1.219,0,0,1,.639-1.149,5.873,5.873,0,0,1,1.5-.443,3.485,3.485,0,0,0,1.018-.3.519.519,0,0,0,.279-.466.614.614,0,0,0-.3-.536,1.425,1.425,0,0,0-.8-.2,3.832,3.832,0,0,0-1.548.455l.759-1.146a4.031,4.031,0,0,1,.789-.075,2.13,2.13,0,0,1,1.9.736,1.241,1.241,0,0,1,.206.48,6.479,6.479,0,0,1,.042.915v1.47a2.875,2.875,0,0,0,.047.65.656.656,0,0,0,.223.3,1.155,1.155,0,0,0,.7.2l-.5.745a2.547,2.547,0,0,1-1.054-.237.837.837,0,0,1-.4-.53A2.98,2.98,0,0,1,636.031,195.726Z" transform="translate(-462.673 -189.371)" fill="#2d2d2d"/>
              <path id="Path_124" data-name="Path 124" d="M653.188,196.365l1.2-3.037a2.043,2.043,0,0,0,.173-.694.633.633,0,0,0-.335-.519h1.615l-2.432,5.81a3.249,3.249,0,0,1-.879,1.3,2.41,2.41,0,0,1-1.545.5,4.133,4.133,0,0,1-1.395-.293l1.029-.745a1.2,1.2,0,0,0,.647.2q.879,0,1.342-1.308l.109-.3a2.79,2.79,0,0,1-.583-.837l-1.514-3.3a3.187,3.187,0,0,0-.391-.683,1.26,1.26,0,0,0-.466-.335l1.116-.042a.806.806,0,0,1,.379.036.931.931,0,0,1,.2.329Z" transform="translate(-474.952 -189.645)" fill="#2d2d2d"/>
            </g>
          </g>
        </g>
      </g>
    </g>
    <text id="NewAgeSys" transform="translate(0 33)" fill="#113e98" font-size="34" font-family="SegoeUI, Segoe UI"><tspan x="0" y="0">NewAgeSys</tspan></text>
  </g>
</svg>
