<svg xmlns="http://www.w3.org/2000/svg" width="163.162" height="82.792" viewBox="0 0 163.162 82.792">
  <g id="Group_2451" data-name="Group 2451" transform="translate(-41 -45.212)">
    <path id="Path_2501" data-name="Path 2501" d="M24.39,0H20.347V-14.788H7.471V0H3.45V-31.992H7.471v13.755H20.347V-31.992H24.39ZM50.427-31.992V-9.25A9.715,9.715,0,0,1,47.79-2.131,9.82,9.82,0,0,1,40.562.439q-4.746,0-7.251-2.516T30.762-9.25V-31.992h4V-9.421A7.224,7.224,0,0,0,36.134-4.6a5.554,5.554,0,0,0,4.428,1.59q3.076,0,4.449-1.592a7.224,7.224,0,0,0,1.373-4.819V-31.992ZM56.624,0V-31.992h9.119q4.373,0,6.581,2.131t2.208,6.394a7.063,7.063,0,0,1-1.121,3.955,7.531,7.531,0,0,1-3.032,2.659,6.085,6.085,0,0,1,3.483,2.7,9.057,9.057,0,0,1,1.285,4.922,9.368,9.368,0,0,1-2.362,6.768A8.9,8.9,0,0,1,66.05,0Zm4.021-14.963V-3.45h5.493a4.61,4.61,0,0,0,3.625-1.5,6.145,6.145,0,0,0,1.34-4.23q0-5.779-4.878-5.779Zm0-3.384h5.164a4.349,4.349,0,0,0,3.373-1.409A5.34,5.34,0,0,0,70.466-23.5,5.368,5.368,0,0,0,69.3-27.342a4.756,4.756,0,0,0-3.56-1.2h-5.1Z" transform="translate(129 107)" fill="#434343"/>
    <path id="Union_1" data-name="Union 1" d="M30.721,82.006A38.454,38.454,0,0,1,.782,52.067,38.76,38.76,0,0,1,0,44.313,38.283,38.283,0,0,1,5.618,24.284a38.7,38.7,0,0,1,4.047-5.473V59.723a1.155,1.155,0,0,0,1.159,1.159h4.444a1.182,1.182,0,0,0,.869-.338,1.123,1.123,0,0,0,.338-.821v-12.9h14.1v12.9a1.155,1.155,0,0,0,1.159,1.159h4.492a1.1,1.1,0,0,0,.845-.338,1.169,1.169,0,0,0,.314-.821V28.277a1.233,1.233,0,0,0-.314-.869,1.1,1.1,0,0,0-.845-.338H31.741a1.123,1.123,0,0,0-.821.338,1.182,1.182,0,0,0-.338.869V40.691h-14.1v-25.5l-.072.033V0l5.91,9.386A38.3,38.3,0,0,1,38.475,5.838a38.779,38.779,0,0,1,7.761.783A38.462,38.462,0,0,1,76.169,36.559a38.8,38.8,0,0,1-.436,17.394,38.273,38.273,0,0,1-3.45,8.747L60.143,47.019a9.45,9.45,0,0,0,4.734-3.454,10.037,10.037,0,0,0,1.691-5.917,9.588,9.588,0,0,0-3.357-7.825c-2.228-1.827-5.356-2.753-9.3-2.753H41.4a1.1,1.1,0,0,0-.845.338,1.231,1.231,0,0,0-.314.869V59.723a1.155,1.155,0,0,0,1.159,1.16h4.444a1.182,1.182,0,0,0,.869-.338,1.123,1.123,0,0,0,.338-.821V48.13h6.618L68.863,67.915l0,.007,7.775,9.951L63.821,73.26q-.463.406-.939.8a38.559,38.559,0,0,1-32.161,7.95ZM47.053,42.624V32.48h6.714a8.746,8.746,0,0,1,2.536.332,4.662,4.662,0,0,1,1.811,1A4.194,4.194,0,0,1,59.2,35.42a6.108,6.108,0,0,1,.362,2.18,6.009,6.009,0,0,1-.362,2.168,4.007,4.007,0,0,1-1.087,1.576,4.715,4.715,0,0,1-1.811.96,9.057,9.057,0,0,1-2.536.32Z" transform="translate(41 45.212)" fill="#06c3ff"/>
  </g>
</svg>
